<svg width="20" height="21" viewBox="0 0 20 21" fill="none" xmlns="http://www.w3.org/2000/svg">
<path d="M10 12.049C10.4421 12.049 10.866 11.8734 11.1786 11.5609C11.4911 11.2483 11.6667 10.8244 11.6667 10.3824C11.6667 9.94033 11.4911 9.51641 11.1786 9.20385C10.866 8.89129 10.4421 8.71569 10 8.71569C9.55801 8.71569 9.13409 8.89129 8.82153 9.20385C8.50897 9.51641 8.33337 9.94033 8.33337 10.3824C8.33337 10.8244 8.50897 11.2483 8.82153 11.5609C9.13409 11.8734 9.55801 12.049 10 12.049Z" stroke="#1125D6" stroke-width="1.25" stroke-linecap="round" stroke-linejoin="round"/>
<path d="M17.5 10.3824C15.9258 12.8749 13.0983 15.3824 10 15.3824C6.90167 15.3824 4.07417 12.8749 2.5 10.3824C4.41583 8.01402 6.66 5.38235 10 5.38235C13.34 5.38235 15.5842 8.01402 17.5 10.3824Z" stroke="#1125D6" stroke-width="1.25" stroke-linecap="round" stroke-linejoin="round"/>
</svg>
