<svg width="20" height="21" viewBox="0 0 20 21" fill="none" xmlns="http://www.w3.org/2000/svg">
<path d="M5.83331 12.4608C5.46955 12.4613 5.11029 12.5412 4.7806 12.695C4.45091 12.8487 4.15874 13.0725 3.92447 13.3508C3.69021 13.6291 3.5195 13.9551 3.42425 14.3062C3.32901 14.6573 3.31152 15.0249 3.37302 15.3834C3.43452 15.742 3.57351 16.0827 3.78031 16.382C3.9871 16.6813 4.25672 16.9318 4.57033 17.1161C4.88394 17.3004 5.234 17.4141 5.59607 17.4491C5.95814 17.4842 6.32349 17.4398 6.66665 17.3191" stroke="#FFB21E" stroke-width="1.25" stroke-linecap="round" stroke-linejoin="round"/>
<path d="M3.5533 13.7983C3.0546 13.5582 2.62354 13.1977 2.29901 12.7494C1.97448 12.301 1.76671 11.7789 1.69443 11.2301C1.62216 10.6814 1.68767 10.1233 1.88504 9.60621C2.08241 9.08912 2.40544 8.62931 2.82497 8.26829M2.84997 8.20079C2.57667 7.79183 2.45689 7.29936 2.51182 6.81056C2.56675 6.32177 2.79286 5.86817 3.15012 5.53008C3.50737 5.19198 3.97273 4.9912 4.46381 4.96326C4.95489 4.93533 5.44001 5.08205 5.8333 5.37745M6.03164 5.43162C5.8987 5.14916 5.83094 4.84043 5.83337 4.52826C5.83579 4.21608 5.90835 3.90845 6.04566 3.62809C6.18298 3.34773 6.38155 3.10181 6.62669 2.90851C6.87183 2.71522 7.15728 2.57949 7.46194 2.51135C7.7666 2.44322 8.08267 2.44442 8.3868 2.51487C8.69093 2.58533 8.97533 2.72323 9.219 2.91838C9.46266 3.11354 9.65935 3.36096 9.79453 3.64236C9.92971 3.92376 9.99992 4.23194 9.99997 4.54412V17.4608C9.99997 17.9028 9.82437 18.3267 9.51181 18.6393C9.19925 18.9519 8.77533 19.1275 8.3333 19.1275C7.89127 19.1275 7.46735 18.9519 7.15479 18.6393C6.84223 18.3267 6.66664 17.9028 6.66664 17.4608M9.99997 6.62745C9.99997 7.2905 10.2634 7.92638 10.7322 8.39522C11.201 8.86406 11.8369 9.12745 12.5 9.12745M14.1666 12.4608C14.5304 12.4613 14.8897 12.5412 15.2193 12.695C15.549 12.8487 15.8412 13.0725 16.0755 13.3508C16.3097 13.6291 16.4804 13.9551 16.5757 14.3062C16.6709 14.6573 16.6884 15.0249 16.6269 15.3834C16.5654 15.742 16.4264 16.0827 16.2196 16.382C16.0128 16.6813 15.7432 16.9318 15.4296 17.1161C15.116 17.3004 14.7659 17.4141 14.4039 17.4491C14.0418 17.4842 13.6765 17.4398 13.3333 17.3191" stroke="#FFB21E" stroke-width="1.25" stroke-linecap="round" stroke-linejoin="round"/>
<path d="M16.4467 13.7983C16.9454 13.5582 17.3764 13.1977 17.701 12.7494C18.0255 12.301 18.2333 11.7789 18.3055 11.2301C18.3778 10.6814 18.3123 10.1233 18.1149 9.60621C17.9176 9.08912 17.5945 8.62931 17.175 8.26829M17.15 8.20079C17.4233 7.79183 17.5431 7.29936 17.4881 6.81056C17.4332 6.32177 17.2071 5.86817 16.8499 5.53008C16.4926 5.19198 16.0272 4.9912 15.5362 4.96326C15.0451 4.93533 14.56 5.08205 14.1667 5.37745M10 4.54412C10.0001 4.23194 10.0703 3.92376 10.2054 3.64236C10.3406 3.36096 10.5373 3.11354 10.781 2.91838C11.0246 2.72323 11.309 2.58533 11.6132 2.51487C11.9173 2.44442 12.2334 2.44322 12.538 2.51135C12.8427 2.57949 13.1281 2.71522 13.3733 2.90851C13.6184 3.10181 13.817 3.34773 13.9543 3.62809C14.0916 3.90845 14.1642 4.21608 14.1666 4.52826C14.169 4.84043 14.1013 5.14916 13.9683 5.43162M13.3333 17.4608C13.3333 17.9028 13.1577 18.3267 12.8452 18.6393C12.5326 18.9519 12.1087 19.1275 11.6667 19.1275C11.2246 19.1275 10.8007 18.9519 10.4882 18.6393C10.1756 18.3267 10 17.9028 10 17.4608" stroke="#FFB21E" stroke-width="1.25" stroke-linecap="round" stroke-linejoin="round"/>
</svg>
